# Blender v2.90.1 OBJ File: ''
# www.blender.org
mtllib cube.mtl
o Cube
v 1.000000 1.000000 -1.000000
v 1.000000 -1.000000 -1.000000
v 1.000000 1.000000 1.000000
v 1.000000 -1.000000 1.000000
v -1.000000 1.000000 -1.000000
v -1.000000 -1.000000 -1.000000
v -1.000000 1.000000 1.000000
v -1.000000 -1.000000 1.000000
vt 0.997396 0.997396
vt -0.002604 0.997396
vt -0.002604 -0.002604
vt 0.997396 -0.002604
vt 0.021469 0.767814
vt 0.367656 0.385557
vt 0.865150 0.096411
vt 0.865150 0.999907
vt 0.000093 0.000093
vt 0.345018 0.395247
vt 0.327069 0.404623
vt 0.339313 0.422187
vt 0.997396 -0.002604
vt -0.002604 0.997396
vt -0.002604 -0.002604
vt -0.002604 -0.002604
vn 0.5773 0.5773 -0.5773
vn -0.5773 0.5773 -0.5773
vn -0.5773 0.5773 0.5773
vn 0.5773 0.5773 0.5773
vn 0.5773 -0.5773 0.5773
vn -0.5773 -0.5773 0.5773
vn -0.5773 -0.5773 -0.5773
vn 0.5773 -0.5773 -0.5773
usemtl Material
s 1
f 1/1/1 5/2/2 7/3/3 3/4/4
f 4/5/5 3/6/4 7/7/3 8/8/6
f 8/9/6 7/7/3 5/10/2 6/11/7
f 6/11/7 2/12/8 4/5/5 8/9/6
f 2/13/8 1/1/1 3/14/4 4/15/5
f 6/16/7 5/2/2 1/1/1 2/13/8
